<svg width="162" height="31" viewBox="0 0 162 31" fill="none" xmlns="http://www.w3.org/2000/svg">
<path fill-rule="evenodd" clip-rule="evenodd" d="M14.4414 7.35352L11.7267 14.9676H15.5016L17.7 8.40464L19.8937 14.9676H23.6687L20.954 7.35352H14.4414ZM24.7702 18.0845L27.4666 25.6802H23.4676L20.9311 18.0845H24.7702ZM10.6252 18.0845L7.91504 25.6985H11.9278L14.4642 18.0845H10.6252Z" fill="#868686"/>
<path fill-rule="evenodd" clip-rule="evenodd" d="M29.3724 30.9909C32.0363 28.6521 33.9366 25.5673 34.8271 22.1362C35.7177 18.705 35.5576 15.0855 34.3673 11.7464C33.1772 8.40728 31.0118 5.50248 28.1518 3.40816C25.2917 1.31385 21.8687 0.126537 18.3261 0L19.6972 3.84358C22.2168 4.20739 24.5893 5.25204 26.5589 6.86492C28.5285 8.47777 30.0206 10.5977 30.874 12.9961C31.7276 15.3944 31.9103 17.9803 31.4024 20.4749C30.8946 22.9695 29.7155 25.2781 27.9922 27.1518L29.3633 31L29.3724 30.9909ZM17.0555 0C13.5141 0.129136 10.0929 1.31832 7.23495 3.41363C4.37693 5.50894 2.21366 8.41389 1.02515 11.7524C-0.163362 15.091 -0.322386 18.7095 0.568664 22.1395C1.45972 25.5694 3.35981 28.6529 6.02299 30.9909L7.39406 27.1427C5.67078 25.2689 4.49165 22.9603 3.98379 20.4657C3.47594 17.9712 3.65863 15.3853 4.51217 12.987C5.36571 10.5885 6.85772 8.46863 8.82733 6.85578C10.797 5.24291 13.1695 4.19825 15.6891 3.83444L17.0555 0Z" fill="#868686"/>
<path fill-rule="evenodd" clip-rule="evenodd" d="M120.366 12.1707C119.011 12.1752 117.688 12.5811 116.564 13.3371C115.44 14.0931 114.564 15.1654 114.049 16.4184C113.533 17.6715 113.401 19.0491 113.668 20.3775C113.935 21.7057 114.59 22.9251 115.55 23.8816C116.509 24.838 117.73 25.4887 119.06 25.7513C120.389 26.014 121.766 25.8769 123.018 25.3574C124.269 24.8379 125.339 23.9592 126.091 22.8323C126.843 21.7055 127.244 20.381 127.244 19.0261C127.244 18.1238 127.066 17.2305 126.72 16.3973C126.375 15.5641 125.867 14.8073 125.228 14.1705C124.59 13.5336 123.831 13.0291 122.996 12.6859C122.162 12.3427 121.269 12.1677 120.366 12.1707ZM120.366 15.146C121.137 15.146 121.891 15.3745 122.532 15.8029C123.173 16.2313 123.673 16.8401 123.968 17.5525C124.262 18.2648 124.34 19.0487 124.19 19.8049C124.039 20.5611 123.668 21.2557 123.123 21.8009C122.578 22.3461 121.883 22.7175 121.127 22.8679C120.37 23.0182 119.586 22.9411 118.874 22.646C118.162 22.3509 117.553 21.8513 117.124 21.2102C116.696 20.5691 116.468 19.8154 116.468 19.0444C116.468 18.0104 116.879 17.0188 117.61 16.2877C118.341 15.5566 119.332 15.146 120.366 15.146Z" fill="#868686"/>
<path fill-rule="evenodd" clip-rule="evenodd" d="M80.349 12.1708C84.1877 12.1708 86.6147 15.37 86.6147 19.0262C86.6147 22.6824 84.1877 25.8816 80.349 25.8816C79.6032 25.8794 78.8654 25.7291 78.1781 25.4397C77.4909 25.1502 76.8679 24.7272 76.3454 24.1951V25.6303H73.3701V7.22583H76.222V13.9715C76.7463 13.402 77.3819 12.946 78.0893 12.6316C78.7968 12.3172 79.5611 12.1511 80.3352 12.1434L80.349 12.1708ZM79.9422 23.1394C82.2274 23.1394 83.562 21.2154 83.562 19.0628C83.562 16.9102 82.2364 14.9861 79.9422 14.9861C77.6479 14.9861 76.286 16.8874 76.286 19.0628C76.286 21.2382 77.6387 23.112 79.9422 23.112V23.1394Z" fill="#868686"/>
<path fill-rule="evenodd" clip-rule="evenodd" d="M58.7088 25.6665L57.2646 21.6082H48.4577L47.009 25.6665H43.8555L50.3772 7.35352H55.3451L61.8714 25.6665H58.7088ZM52.5024 10.2511L49.4906 18.7106H56.2317L53.2154 10.2511H52.5024Z" fill="#868686"/>
<path fill-rule="evenodd" clip-rule="evenodd" d="M161.068 12.4229V25.6674H158.093V15.2701H154.122V25.6674H151.146V15.2701H147.174V25.6674H144.199V12.4229H161.068Z" fill="#868686"/>
<path fill-rule="evenodd" clip-rule="evenodd" d="M102.711 15.2694H99.1648V22.8148H102.46V25.6667H96.1896V15.2694H93.6533V12.4221H96.1896V9.12695H99.1648V12.4221H102.711V15.2694Z" fill="#868686"/>
<path fill-rule="evenodd" clip-rule="evenodd" d="M88.9629 25.3841V12.4229H91.9381V25.6674H88.9629V25.3841Z" fill="#868686"/>
<path d="M92.0911 7.35352H88.8369V10.7081H92.0911V7.35352Z" fill="#868686"/>
<path fill-rule="evenodd" clip-rule="evenodd" d="M71.5287 12.4229V15.2701H66.2135V25.6674H63.2383V12.4229H71.5287Z" fill="#868686"/>
<path fill-rule="evenodd" clip-rule="evenodd" d="M113.223 12.4229V15.2701H107.908V25.6674H104.933V12.4229H113.223Z" fill="#868686"/>
<path fill-rule="evenodd" clip-rule="evenodd" d="M135.502 12.1709C134.146 12.1709 132.82 12.573 131.693 13.3263C130.566 14.0795 129.687 15.1502 129.168 16.4029C128.649 17.6555 128.514 19.0339 128.778 20.3637C129.042 21.6935 129.696 22.9151 130.654 23.8738C131.613 24.8325 132.834 25.4855 134.164 25.75C135.495 26.0145 136.872 25.8787 138.125 25.3598C139.378 24.841 140.449 23.9623 141.202 22.835C141.955 21.7076 142.357 20.3821 142.357 19.0263C142.357 17.2082 141.635 15.4645 140.349 14.1788C139.064 12.8932 137.32 12.1709 135.502 12.1709ZM135.502 15.1462C136.273 15.1462 137.027 15.3748 137.668 15.8032C138.309 16.2316 138.808 16.8404 139.104 17.5527C139.399 18.2651 139.476 19.0489 139.326 19.8051C139.175 20.5614 138.803 21.256 138.258 21.8012C137.714 22.3464 137.018 22.7177 136.262 22.8681C135.506 23.0185 134.722 22.9414 134.01 22.6463C133.298 22.3512 132.689 21.8515 132.261 21.2104C131.832 20.5694 131.603 19.8157 131.603 19.0446C131.605 18.0111 132.016 17.0202 132.746 16.2893C133.477 15.5585 134.468 15.1474 135.502 15.1462Z" fill="#868686"/>
</svg>
