<svg width="27" height="23" viewBox="0 0 27 23" fill="none" xmlns="http://www.w3.org/2000/svg">
<path id="Vector" d="M21.375 0.625H5.625C4.13371 0.626919 2.704 1.26407 1.6495 2.39668C0.594992 3.5293 0.00178634 5.06491 0 6.66667L0 16.3333C0.00178634 17.9351 0.594992 19.4707 1.6495 20.6033C2.704 21.7359 4.13371 22.3731 5.625 22.375H21.375C22.8663 22.3731 24.296 21.7359 25.3505 20.6033C26.405 19.4707 26.9982 17.9351 27 16.3333V6.66667C26.9982 5.06491 26.405 3.5293 25.3505 2.39668C24.296 1.26407 22.8663 0.626919 21.375 0.625ZM5.625 3.04167H21.375C22.2701 3.04167 23.1286 3.42359 23.7615 4.1034C24.3944 4.78322 24.75 5.70526 24.75 6.66667H2.25C2.25 5.70526 2.60558 4.78322 3.23851 4.1034C3.87145 3.42359 4.72989 3.04167 5.625 3.04167ZM21.375 19.9583H5.625C4.72989 19.9583 3.87145 19.5764 3.23851 18.8966C2.60558 18.2168 2.25 17.2947 2.25 16.3333V9.08333H24.75V16.3333C24.75 17.2947 24.3944 18.2168 23.7615 18.8966C23.1286 19.5764 22.2701 19.9583 21.375 19.9583Z" fill="white"/>
</svg>
