<svg width="39" height="39" viewBox="0 0 39 39" fill="none" xmlns="http://www.w3.org/2000/svg">
<path d="M33.15 0H5.85C2.535 0 0 2.535 0 5.85V33.15C0 36.465 2.535 39 5.85 39H33.15C36.465 39 39 36.465 39 33.15V5.85C39 2.535 36.465 0 33.15 0ZM11.7 29.25C11.7 30.42 10.92 31.2 9.75 31.2C8.58 31.2 7.8 30.42 7.8 29.25V21.45C7.8 20.28 8.58 19.5 9.75 19.5C10.92 19.5 11.7 20.28 11.7 21.45V29.25ZM21.45 29.25C21.45 30.42 20.67 31.2 19.5 31.2C18.33 31.2 17.55 30.42 17.55 29.25V9.75C17.55 8.58 18.33 7.8 19.5 7.8C20.67 7.8 21.45 8.58 21.45 9.75V29.25ZM31.2 29.25C31.2 30.42 30.42 31.2 29.25 31.2C28.08 31.2 27.3 30.42 27.3 29.25V17.55C27.3 16.38 28.08 15.6 29.25 15.6C30.42 15.6 31.2 16.38 31.2 17.55V29.25Z" fill="#D199FF"/>
</svg>
