<svg width="43" height="44" viewBox="0 0 43 44" fill="none" xmlns="http://www.w3.org/2000/svg">
<path d="M21.236 0.674194C9.55618 0.674194 0 10.2304 0 21.9101C0 33.5899 9.55618 43.1461 21.236 43.1461C32.9157 43.1461 42.4719 33.5899 42.4719 21.9101C42.4719 10.2304 32.9157 0.674194 21.236 0.674194ZM23.3596 21.9101C23.3596 22.7596 22.9348 23.3967 22.2978 23.8214L16.7764 27.0068C15.7146 27.6439 14.4404 27.2191 13.8034 26.1573C13.1663 25.0955 13.591 23.8214 14.6528 23.1843L19.1124 20.636V11.2922C19.1124 10.018 19.9618 9.16858 21.236 9.16858C22.5101 9.16858 23.3596 10.018 23.3596 11.2922V21.9101Z" fill="#D199FF"/>
</svg>
