<svg width="36" height="44" viewBox="0 0 36 44" fill="none" xmlns="http://www.w3.org/2000/svg">
<path d="M34.6667 3.63C34.2222 3.19 33.5556 2.97 32.8889 3.19C28 4.29 23.1111 3.19 19.1111 0.33C18.4444 -0.11 17.3333 -0.11 16.6667 0.33C12.4444 3.19 7.55555 4.29 2.66667 3.19C1.55555 2.97 0.222222 3.85 0 4.95C0 5.17 0 5.17 0 5.39V21.89C0 28.27 3.11111 34.21 8.44444 37.95L16.6667 43.67C17.3333 44.11 18.4444 44.11 19.3333 43.67L27.5556 37.95C32.8889 34.21 36 28.27 36 21.89V5.39C35.5556 4.73 35.3333 4.07 34.6667 3.63ZM22.2222 24.31H20V26.51C20 27.83 19.1111 28.71 17.7778 28.71C16.4444 28.71 15.5556 27.83 15.5556 26.51V24.31H13.3333C12 24.31 11.1111 23.43 11.1111 22.11C11.1111 20.79 12 19.91 13.3333 19.91H15.5556V17.71C15.5556 16.39 16.4444 15.51 17.7778 15.51C19.1111 15.51 20 16.39 20 17.71V19.91H22.2222C23.5556 19.91 24.4444 20.79 24.4444 22.11C24.4444 23.43 23.5556 24.31 22.2222 24.31Z" fill="#D199FF"/>
</svg>
