<svg width="44" height="44" viewBox="0 0 44 44" fill="none" xmlns="http://www.w3.org/2000/svg">
<path d="M42.6224 11.7117L42.6228 11.7119C42.8883 11.8587 43.1096 12.0739 43.2639 12.3352C43.4182 12.5965 43.4997 12.8943 43.5 13.1977C43.5003 13.5011 43.4194 13.799 43.2658 14.0606C43.1121 14.3222 42.8913 14.5378 42.6262 14.6853L42.6259 14.6854L22.8739 25.6858L22.8731 25.6863C22.6207 25.8274 22.3363 25.9014 22.0471 25.9011C21.7579 25.9008 21.4736 25.8262 21.2214 25.6846L21.2204 25.684L1.37154 14.5956L1.37141 14.5955C1.10676 14.4477 0.886425 14.2319 0.733212 13.9704C0.579999 13.7089 0.499482 13.4112 0.500003 13.1081C0.500523 12.805 0.58206 12.5076 0.736171 12.2466C0.890281 11.9856 1.11136 11.7706 1.37651 11.6237L21.1276 0.711854C21.1277 0.711771 21.128 0.711655 21.1281 0.711572C21.3802 0.572759 21.6633 0.5 21.9511 0.5C22.239 0.5 22.5222 0.572812 22.7743 0.711658C22.7744 0.711723 22.7746 0.711788 22.7747 0.711853L42.6224 11.7117ZM21.8063 22.115L22.0498 22.251L22.2934 22.1153L37.5133 13.6406L38.2997 13.2027L37.5124 12.7665L22.1913 4.27634L21.9493 4.14224L21.7071 4.27605L6.48939 12.6848L5.70163 13.12L6.4874 13.5589L21.8063 22.115ZM21.7567 30.9203L21.9995 31.0552L22.2423 30.9203L40.5384 20.7568L42.1873 23.7282L22.8238 34.4859C22.8238 34.4859 22.8238 34.4859 22.8237 34.4859C22.5713 34.6261 22.2872 34.6997 21.9984 34.6997C21.7096 34.6997 21.4256 34.6261 21.1731 34.4859C21.1731 34.4859 21.1731 34.4859 21.1731 34.4859L1.80977 23.7283L3.46043 20.7567L21.7567 30.9203ZM21.7567 39.7206L21.9995 39.8555L22.2423 39.7206L40.5384 29.5572L42.1873 32.5285L22.8238 43.2862C22.8238 43.2862 22.8238 43.2862 22.8237 43.2862C22.5713 43.4264 22.2872 43.5 21.9984 43.5C21.7096 43.5 21.4256 43.4264 21.1731 43.2862C21.1731 43.2862 21.1731 43.2862 21.1731 43.2862L1.80977 32.5286L3.46043 29.5571L21.7567 39.7206Z" fill="#BF73FF" stroke="#8B00FF"/>
</svg>
