<svg width="39" height="50" viewBox="0 0 39 50" fill="none" xmlns="http://www.w3.org/2000/svg">
<path d="M38.5 37.8851V37.885V35.625C38.5 34.9502 38.3704 34.2824 38.1189 33.6597C37.8674 33.0369 37.4991 32.4719 37.0356 31.9966C36.5721 31.5213 36.0226 31.1449 35.4187 30.8884C34.8148 30.6319 34.1681 30.5 33.5153 30.5H5.48472C4.1672 30.5 2.90099 31.0365 1.96521 31.9958C1.02906 32.9554 0.500647 34.2597 0.5 35.6225L38.5 37.8851ZM38.5 37.8851C38.5003 39.1663 38.2305 40.4321 37.7095 41.5956C37.1886 42.759 36.429 43.7922 35.4835 44.6248L35.814 45M38.5 37.8851L35.814 45M35.814 45L35.4835 44.6248C31.7917 47.8763 26.465 49.5 19.4915 49.5C12.5179 49.5 7.19877 47.8763 3.5144 44.6251L3.51416 44.6249M35.814 45L3.51416 44.6249M3.51416 44.6249C2.57004 43.7929 1.81138 42.7607 1.29085 41.5986M3.51416 44.6249L1.29085 41.5986M1.29085 41.5986C0.770322 40.4365 0.500414 39.1723 0.5 37.8925M1.29085 41.5986L0.5 37.8925M0.5 37.8925C0.5 37.8924 0.5 37.8924 0.5 37.8923M0.5 37.8925L0.5 37.8923M0.5 37.8923L0.5 35.6226C0.5 35.6226 0.5 35.6227 0.5 35.6227L0.5 37.8923ZM33.0153 33.25H5.48228C4.86066 33.25 4.26713 33.5034 3.83153 33.9501C3.39635 34.3964 3.15404 34.9991 3.15404 35.625V37.8925C3.15404 39.6718 3.91401 41.3663 5.23417 42.5323L5.2344 42.5325C8.42802 45.3495 13.1897 46.75 19.4915 46.75C25.7962 46.75 30.5622 45.3443 33.7652 42.5253L33.7656 42.525C34.4188 41.9489 34.9422 41.2355 35.3005 40.4344C35.6588 39.6333 35.8439 38.7629 35.8435 37.8825C35.8435 37.8824 35.8435 37.8824 35.8435 37.8823V35.62C35.8435 34.9941 35.6012 34.3914 35.166 33.9451C34.7304 33.4984 34.1369 33.245 33.5153 33.245H33.0153V33.25ZM18.4952 0.966136C18.7044 0.720469 18.9899 0.56183 19.2989 0.514946L19.5077 0.500104C19.8193 0.504077 20.1215 0.621477 20.3597 0.834592C20.5988 1.0484 20.7577 1.34467 20.805 1.67116L20.8197 1.89138L20.8173 3.74685L20.8166 4.2475H21.3173H29.8491C31.167 4.2475 32.4335 4.7843 33.3693 5.74408C34.3056 6.7043 34.8338 8.00925 34.8338 9.3725V20.635C34.8338 21.9983 34.3056 23.3032 33.3693 24.2634C32.4335 25.2232 31.167 25.76 29.8491 25.76H9.12901C7.81111 25.76 6.54456 25.2232 5.60872 24.2634C4.67245 23.3032 4.14429 21.9983 4.14429 20.635V9.375C4.14429 8.70006 4.27397 8.03201 4.52562 7.40913C4.77726 6.78626 5.14577 6.22116 5.6095 5.74578C6.0732 5.27043 6.62299 4.89412 7.22713 4.63772C7.83123 4.38134 8.47821 4.2497 9.13122 4.25H9.13159L17.6634 4.2475L18.1632 4.24735V3.7475V1.87511C18.1632 1.87507 18.1632 1.87504 18.1632 1.875C18.1633 1.53893 18.2823 1.21614 18.4952 0.966136ZM29.8515 7H9.13144C8.50983 7 7.9163 7.25337 7.4807 7.70011C7.04551 8.14643 6.80321 8.74913 6.80321 9.375V20.635C6.80321 21.9342 7.83429 23.01 9.13144 23.01H29.8515C30.4731 23.01 31.0666 22.7566 31.5022 22.3099C31.9374 21.8636 32.1797 21.2609 32.1797 20.635V9.375C32.1797 8.74913 31.9374 8.14643 31.5022 7.70011C31.0666 7.25337 30.4731 7 29.8515 7ZM14.0273 11.7496C14.3682 11.7356 14.7087 11.7923 15.0284 11.9168C15.3481 12.0412 15.6408 12.2309 15.8888 12.4752C16.1367 12.7195 16.3347 13.0134 16.4702 13.3396L16.9319 13.1478L16.4702 13.3396C16.6057 13.6658 16.6757 14.0172 16.6757 14.3725C16.6757 14.7278 16.6057 15.0792 16.4702 15.4054L16.9319 15.5972L16.4702 15.4054C16.3347 15.7316 16.1367 16.0255 15.8888 16.2698C15.6408 16.5141 15.3481 16.7038 15.0284 16.8282C14.7087 16.9527 14.3682 17.0094 14.0273 16.9954C13.3738 16.9686 12.7532 16.6835 12.2962 16.1957C11.8389 15.7076 11.5815 15.0544 11.5815 14.3725C11.5815 13.6906 11.8389 13.0374 12.2962 12.5493C12.7532 12.0615 13.3738 11.7764 14.0273 11.7496ZM24.9772 11.7496C25.3182 11.7356 25.6586 11.7923 25.9783 11.9168C26.298 12.0412 26.5908 12.2309 26.8387 12.4752C27.0866 12.7195 27.2846 13.0134 27.4201 13.3396C27.5556 13.6658 27.6256 14.0172 27.6256 14.3725C27.6256 14.7278 27.5556 15.0792 27.4201 15.4054C27.2846 15.7316 27.0866 16.0255 26.8387 16.2698C26.5908 16.5141 26.298 16.7038 25.9783 16.8282C25.6586 16.9527 25.3182 17.0094 24.9772 16.9954C24.3238 16.9686 23.7031 16.6835 23.2462 16.1957C22.7889 15.7076 22.5315 15.0544 22.5315 14.3725C22.5315 13.6906 22.7889 13.0374 23.2462 12.5493C23.7031 12.0615 24.3238 11.7764 24.9772 11.7496Z" fill="#BF73FF" stroke="#8B00FF"/>
</svg>
