<svg width="40" height="40" viewBox="0 0 40 40" fill="none" xmlns="http://www.w3.org/2000/svg">
<path d="M20 0C9 0 8.9407e-08 9 8.9407e-08 20C8.9407e-08 24.6 1.6 29 4.6 32.6L0.6 36.6C-0.2 37.4 -0.2 38.6 0.6 39.4C1 39.8 1.4 40 2 40H20C31 40 40 31 40 20C40 9 31 0 20 0ZM12 22C10.8 22 10 21.2 10 20C10 18.8 10.8 18 12 18C13.2 18 14 18.8 14 20C14 21.2 13.2 22 12 22ZM20 22C18.8 22 18 21.2 18 20C18 18.8 18.8 18 20 18C21.2 18 22 18.8 22 20C22 21.2 21.2 22 20 22ZM28 22C26.8 22 26 21.2 26 20C26 18.8 26.8 18 28 18C29.2 18 30 18.8 30 20C30 21.2 29.2 22 28 22Z" fill="#D199FF"/>
</svg>
