<svg width="41" height="48" viewBox="0 0 41 48" fill="none" xmlns="http://www.w3.org/2000/svg">
<path d="M20.5 0L0 6.85714V27.4286C0 38.7911 9.17695 48 20.5 48C31.823 48 41 38.7911 41 27.4286V6.85714L20.5 0ZM37.1562 27.4286C37.1562 36.6589 29.6983 44.1429 20.5 44.1429C11.3017 44.1429 3.84375 36.6589 3.84375 27.4286V9.75L20.5 3.85714L37.1562 9.75V27.4286Z" fill="#BF73FF"/>
<path d="M13.3677 22.0232C13.1896 21.8436 12.9779 21.7012 12.7447 21.6039C12.5115 21.5067 12.2615 21.4567 12.0091 21.4567C11.7566 21.4567 11.5066 21.5067 11.2734 21.6039C11.0402 21.7012 10.8285 21.8436 10.6504 22.0232C10.4714 22.202 10.3295 22.4144 10.2326 22.6484C10.1357 22.8824 10.0858 23.1332 10.0858 23.3866C10.0858 23.64 10.1357 23.8908 10.2326 24.1248C10.3295 24.3588 10.4714 24.5713 10.6504 24.75L17.6706 31.7946C17.8391 31.964 18.0392 32.0984 18.2595 32.1901C18.4798 32.2818 18.716 32.329 18.9545 32.329C19.193 32.329 19.4292 32.2818 19.6495 32.1901C19.8698 32.0984 20.0699 31.964 20.2384 31.7946L32.1701 19.8214C32.3389 19.6523 32.4728 19.4515 32.5642 19.2304C32.6555 19.0094 32.7026 18.7724 32.7026 18.533C32.7026 18.2937 32.6555 18.0567 32.5642 17.8356C32.4728 17.6145 32.3389 17.4137 32.1701 17.2446L32.0206 17.0946C31.8521 16.9252 31.652 16.7909 31.4316 16.6992C31.2113 16.6075 30.9752 16.5603 30.7367 16.5603C30.4981 16.5603 30.262 16.6075 30.0417 16.6992C29.8214 16.7909 29.6212 16.9252 29.4527 17.0946L18.9518 27.6268L13.3677 22.0232Z" fill="#BF73FF"/>
</svg>
