<svg width="27" height="24" viewBox="0 0 27 24" fill="none" xmlns="http://www.w3.org/2000/svg">
<path id="Vector" d="M0 3C0 1.35 1.215 0 2.7 0H22.95C23.308 0 23.6514 0.158035 23.9046 0.43934C24.1578 0.720644 24.3 1.10218 24.3 1.5V3H2.7V4.5H25.65C26.008 4.5 26.3514 4.65804 26.6046 4.93934C26.8578 5.22064 27 5.60218 27 6V21C27 21.7957 26.7155 22.5587 26.2092 23.1213C25.7028 23.6839 25.0161 24 24.3 24H2.7C1.98392 24 1.29716 23.6839 0.790812 23.1213C0.284464 22.5587 0 21.7957 0 21V3ZM22.275 16.5C22.8121 16.5 23.3271 16.2629 23.7069 15.841C24.0867 15.419 24.3 14.8467 24.3 14.25C24.3 13.6533 24.0867 13.081 23.7069 12.659C23.3271 12.2371 22.8121 12 22.275 12C21.7379 12 21.2229 12.2371 20.8431 12.659C20.4633 13.081 20.25 13.6533 20.25 14.25C20.25 14.8467 20.4633 15.419 20.8431 15.841C21.2229 16.2629 21.7379 16.5 22.275 16.5Z" fill="white"/>
</svg>
