<svg width="198" height="38" viewBox="0 0 198 38" fill="none" xmlns="http://www.w3.org/2000/svg">
<g id="Group 1000004469">
<g id="Group 1000004424">
<path id="Vector" fill-rule="evenodd" clip-rule="evenodd" d="M17.7022 9.01367L14.3745 18.3471H19.0019L21.6966 10.3022L24.3857 18.3471H29.0131L25.6854 9.01367H17.7022ZM30.3633 22.1678L33.6686 31.4787H28.7666L25.6574 22.1678H30.3633ZM13.0243 22.1678L9.70215 31.5011H14.621L17.7302 22.1678H13.0243Z" fill="#C4C4C4"/>
<path id="Vector_2" fill-rule="evenodd" clip-rule="evenodd" d="M36.0049 37.9888C39.2703 35.1219 41.5997 31.3406 42.6913 27.1347C43.783 22.9287 43.5867 18.4919 42.1277 14.3988C40.6688 10.3057 38.0145 6.74497 34.5086 4.17775C31.0027 1.61053 26.8068 0.15511 22.4643 0L24.1449 4.71148C27.2335 5.15744 30.1417 6.43799 32.5561 8.41506C34.9704 10.3921 36.7994 12.9907 37.8456 15.9307C38.8919 18.8706 39.1159 22.0404 38.4933 25.0983C37.8708 28.1561 36.4254 30.986 34.313 33.2829L35.9937 38L36.0049 37.9888ZM20.9068 0C16.5657 0.158296 12.372 1.61601 8.86865 4.18445C5.36527 6.75289 2.71352 10.3138 1.25663 14.4062C-0.200251 18.4987 -0.395183 22.9342 0.697072 27.1387C1.78933 31.3431 4.11847 35.1229 7.38302 37.9888L9.06369 33.2717C6.95128 30.9748 5.50589 28.1449 4.88336 25.087C4.26083 22.0292 4.48477 18.8594 5.53105 15.9195C6.57732 12.9795 8.40624 10.3809 10.8206 8.40386C13.235 6.42679 16.1432 5.14624 19.2318 4.70028L20.9068 0Z" fill="#C4C4C4"/>
</g>
<path id="Vector_3" fill-rule="evenodd" clip-rule="evenodd" d="M147.546 14.919C145.885 14.9245 144.263 15.4221 142.885 16.3488C141.507 17.2755 140.434 18.5899 139.802 20.1259C139.17 21.6619 139.008 23.3506 139.335 24.9789C139.663 26.6071 140.465 28.1018 141.642 29.2743C142.818 30.4467 144.315 31.2443 145.945 31.5662C147.574 31.8882 149.262 31.7202 150.796 31.0833C152.33 30.4465 153.641 29.3694 154.563 27.9881C155.485 26.6068 155.977 24.9832 155.977 23.3224C155.977 22.2164 155.759 21.1214 155.335 20.1C154.911 19.0787 154.289 18.151 153.506 17.3704C152.723 16.5897 151.793 15.9713 150.77 15.5506C149.747 15.1299 148.652 14.9153 147.546 14.919ZM147.546 18.5661C148.491 18.5661 149.415 18.8463 150.201 19.3714C150.987 19.8965 151.599 20.6428 151.961 21.516C152.322 22.3892 152.417 23.3501 152.233 24.277C152.048 25.204 151.593 26.0555 150.925 26.7238C150.257 27.3921 149.405 27.8473 148.478 28.0317C147.551 28.216 146.59 28.1214 145.717 27.7597C144.844 27.398 144.097 26.7855 143.572 25.9997C143.047 25.2138 142.767 24.2899 142.767 23.3448C142.767 22.0774 143.271 20.8619 144.167 19.9657C145.063 19.0695 146.278 18.5661 147.546 18.5661Z" fill="#E7E7E7"/>
<path id="Vector_4" fill-rule="evenodd" clip-rule="evenodd" d="M98.4922 14.919C103.198 14.919 106.173 18.8406 106.173 23.3224C106.173 27.8042 103.198 31.7258 98.4922 31.7258C97.5781 31.7231 96.6736 31.5389 95.8312 31.1841C94.9888 30.8292 94.2251 30.3107 93.5846 29.6585V31.4177H89.9375V8.85742H93.4333V17.1263C94.0761 16.4282 94.8552 15.8692 95.7223 15.4838C96.5895 15.0984 97.5264 14.8948 98.4754 14.8854L98.4922 14.919ZM97.9936 28.3644C100.795 28.3644 102.431 26.0059 102.431 23.3672C102.431 20.7286 100.806 18.37 97.9936 18.37C95.1812 18.37 93.5118 20.7006 93.5118 23.3672C93.5118 26.0339 95.17 28.3308 97.9936 28.3308V28.3644Z" fill="#E7E7E7"/>
<path id="Vector_5" fill-rule="evenodd" clip-rule="evenodd" d="M71.9661 31.4623L70.1958 26.4876H59.4003L57.6244 31.4623H53.7588L61.7532 9.01416H67.8429L75.8429 31.4623H71.9661ZM64.3583 12.566L60.6664 22.9357H68.9297L65.2322 12.566H64.3583Z" fill="#E7E7E7"/>
<path id="Vector_6" fill-rule="evenodd" clip-rule="evenodd" d="M197.439 15.2275V31.4628H193.792V18.7177H188.924V31.4628H185.277V18.7177H180.408V31.4628H176.761V15.2275H197.439Z" fill="#E7E7E7"/>
<path id="Vector_7" fill-rule="evenodd" clip-rule="evenodd" d="M125.904 18.7174H121.557V27.9667H125.596V31.4625H117.91V18.7174H114.801V15.2272H117.91V11.188H121.557V15.2272H125.904V18.7174Z" fill="#E7E7E7"/>
<path id="Vector_8" fill-rule="evenodd" clip-rule="evenodd" d="M109.052 31.1155V15.2275H112.699V31.4628H109.052V31.1155Z" fill="#E7E7E7"/>
<path id="Vector_9" d="M112.885 9.01416H108.896V13.1262H112.885V9.01416Z" fill="#E7E7E7"/>
<path id="Vector_10" fill-rule="evenodd" clip-rule="evenodd" d="M87.6801 15.2275V18.7177H81.1646V31.4628H77.5176V15.2275H87.6801Z" fill="#E7E7E7"/>
<path id="Vector_11" fill-rule="evenodd" clip-rule="evenodd" d="M138.789 15.2275V18.7177H132.274V31.4628H128.627V15.2275H138.789Z" fill="#E7E7E7"/>
<path id="Vector_12" fill-rule="evenodd" clip-rule="evenodd" d="M166.1 14.9189C164.438 14.9189 162.813 15.4118 161.431 16.3352C160.049 17.2585 158.972 18.571 158.336 20.1065C157.7 21.642 157.534 23.3316 157.858 24.9617C158.182 26.5918 158.983 28.0892 160.158 29.2644C161.333 30.4396 162.83 31.24 164.46 31.5642C166.091 31.8885 167.78 31.722 169.316 31.086C170.851 30.45 172.164 29.3729 173.087 27.991C174.01 26.609 174.503 24.9843 174.503 23.3223C174.503 21.0936 173.618 18.9562 172.042 17.3802C170.466 15.8043 168.329 14.9189 166.1 14.9189ZM166.1 18.566C167.045 18.566 167.969 18.8463 168.755 19.3714C169.541 19.8965 170.153 20.6428 170.515 21.516C170.877 22.3892 170.971 23.35 170.787 24.277C170.602 25.204 170.147 26.0555 169.479 26.7238C168.811 27.3921 167.959 27.8472 167.032 28.0316C166.105 28.216 165.144 28.1214 164.271 27.7597C163.398 27.398 162.652 26.7855 162.127 25.9996C161.601 25.2138 161.321 24.2899 161.321 23.3447C161.323 22.0778 161.827 20.8632 162.722 19.9673C163.618 19.0714 164.833 18.5675 166.1 18.566Z" fill="#E7E7E7"/>
</g>
</svg>
